<svg xmlns="http://www.w3.org/2000/svg" xmlns:xlink="http://www.w3.org/1999/xlink" width="250" zoomAndPan="magnify" viewBox="0 0 187.5 149.999998" height="200" preserveAspectRatio="xMidYMid meet" version="1.0"><defs><clipPath id="id1"><path d="M 115 21.675781 L 187 21.675781 L 187 49 L 115 49 Z M 115 21.675781 " clip-rule="nonzero"/></clipPath><clipPath id="id2"><path d="M 0 116 L 5 116 L 5 128.761719 L 0 128.761719 Z M 0 116 " clip-rule="nonzero"/></clipPath><clipPath id="id3"><path d="M 181 22 L 187 22 L 187 31 L 181 31 Z M 181 22 " clip-rule="nonzero"/></clipPath></defs><path fill="#1f88e4" d="M 162.597656 86.953125 C 161.6875 86.953125 160.617188 86.289062 160.535156 85.21875 C 160.453125 84.144531 160.289062 82.902344 160.121094 81.664062 C 159.957031 80.589844 159.710938 79.515625 159.296875 78.195312 C 158.722656 76.375 158.0625 74.558594 157.484375 73.074219 C 157.402344 72.742188 157.238281 72.492188 157.152344 72.164062 C 156.90625 71.503906 156.660156 70.839844 156.328125 70.179688 C 155.339844 67.867188 154.269531 65.554688 153.277344 63.242188 C 152.867188 62.332031 152.535156 61.421875 152.207031 60.597656 L 152.042969 60.265625 C 151.628906 59.191406 151.21875 58.035156 150.886719 57.042969 C 150.722656 56.464844 150.476562 55.886719 150.308594 55.226562 C 149.734375 55.390625 149.15625 55.558594 148.660156 55.640625 C 148.085938 55.804688 147.507812 55.886719 147.011719 56.054688 C 146.1875 56.21875 145.363281 56.382812 144.621094 56.632812 C 144.042969 56.796875 143.632812 56.878906 143.21875 56.878906 C 143.136719 56.878906 143.054688 56.878906 142.972656 56.878906 C 141.898438 56.878906 141.074219 56.21875 140.910156 55.144531 C 140.746094 54.484375 140.828125 53.90625 140.992188 53.410156 C 141.15625 52.832031 141.488281 52.335938 141.816406 51.921875 C 142.394531 51.179688 142.972656 50.351562 143.714844 49.445312 C 144.207031 48.867188 144.621094 48.371094 145.117188 47.792969 L 145.28125 47.625 C 146.1875 46.636719 146.847656 45.808594 147.507812 45.066406 C 146.929688 45.066406 146.433594 44.984375 145.859375 44.898438 C 144.867188 44.734375 143.878906 44.488281 142.890625 44.15625 C 141.984375 43.910156 141.15625 43.578125 140.332031 43.246094 L 140.167969 43.164062 L 138.601562 42.585938 C 137.695312 42.257812 136.789062 41.925781 135.882812 41.59375 L 131.839844 40.109375 C 130.4375 39.613281 129.039062 39.199219 127.964844 38.871094 L 126.730469 38.539062 C 126.070312 38.375 125.492188 38.207031 124.832031 38.042969 C 124.335938 37.878906 123.925781 37.382812 123.679688 36.96875 C 123.511719 36.554688 123.429688 36.058594 123.59375 35.648438 C 123.511719 35.480469 123.429688 35.316406 123.429688 35.070312 C 123.347656 34.492188 123.511719 33.914062 123.84375 33.5 C 124.171875 33.003906 124.667969 32.839844 125.160156 32.671875 C 127.222656 32.09375 129.449219 31.597656 131.675781 31.101562 C 132.746094 30.855469 133.902344 30.609375 134.972656 30.359375 L 135.882812 30.113281 C 136.539062 29.945312 137.28125 29.78125 137.941406 29.617188 L 138.4375 29.535156 C 139.425781 29.367188 140.417969 29.203125 141.324219 28.957031 C 142.066406 28.789062 142.890625 28.707031 143.632812 28.625 C 144.042969 28.542969 144.457031 28.542969 144.867188 28.460938 C 145.691406 28.375 146.433594 28.292969 147.257812 28.210938 C 147.671875 28.210938 148 28.128906 148.414062 28.128906 C 149.320312 28.046875 150.226562 27.964844 151.21875 27.882812 C 156 27.46875 160.289062 27.054688 164.574219 26.394531 C 167.046875 25.980469 169.605469 25.652344 172.078125 25.238281 C 172.574219 25.15625 173.148438 25.070312 173.644531 24.988281 C 175.046875 24.742188 176.53125 24.492188 177.933594 24.328125 C 179.5 24.164062 181.066406 23.914062 182.632812 23.832031 C 182.714844 23.832031 182.796875 23.832031 182.878906 23.832031 C 183.953125 23.832031 184.859375 24.578125 185.023438 25.566406 C 185.105469 26.144531 184.941406 26.722656 184.609375 27.21875 C 184.28125 27.632812 183.785156 27.882812 183.292969 27.964844 C 182.714844 28.046875 182.136719 28.046875 181.558594 28.128906 C 181.558594 29.449219 181.394531 30.855469 181.230469 32.09375 C 181.148438 32.921875 180.902344 33.664062 180.734375 34.40625 L 180.734375 34.492188 C 180.570312 35.234375 180.40625 36.058594 180.160156 36.804688 C 179.746094 38.042969 179.335938 39.28125 179.003906 40.4375 C 178.757812 41.183594 178.507812 41.925781 178.179688 42.585938 C 178.015625 42.917969 177.933594 43.246094 177.769531 43.496094 C 177.355469 44.488281 177.027344 45.3125 176.695312 46.140625 C 176.199219 47.378906 175.625 48.617188 175.046875 49.855469 L 174.386719 51.839844 C 173.890625 53.246094 173.480469 54.648438 173.066406 55.972656 C 172.902344 56.632812 172.65625 57.292969 172.492188 57.953125 C 172.324219 58.53125 172.160156 59.191406 171.996094 59.769531 C 171.914062 60.019531 171.832031 60.347656 171.75 60.597656 C 171.582031 61.175781 171.417969 61.835938 171.253906 62.414062 L 171.007812 63.324219 L 170.015625 67.785156 C 169.933594 68.199219 169.851562 68.609375 169.769531 69.023438 L 169.6875 69.519531 C 169.441406 70.59375 169.273438 71.667969 169.027344 72.742188 C 168.863281 73.402344 168.699219 73.816406 168.285156 74.144531 C 168.039062 74.394531 167.707031 74.476562 167.296875 74.558594 C 167.214844 75.21875 167.046875 75.882812 166.882812 76.542969 C 166.636719 77.535156 166.304688 78.441406 165.894531 79.515625 L 165.976562 80.011719 L 166.140625 81.167969 L 166.304688 82.160156 C 166.472656 83.152344 165.894531 84.058594 164.988281 84.390625 C 165.070312 85.050781 164.90625 85.546875 164.574219 85.960938 C 164.246094 86.375 163.75 86.703125 163.253906 86.785156 C 162.761719 86.953125 162.679688 86.953125 162.597656 86.953125 Z M 149.074219 50.1875 C 148.910156 50.519531 148.742188 50.847656 148.578125 51.179688 L 148.414062 51.507812 L 148.828125 51.425781 L 149.238281 51.34375 L 149.15625 50.929688 L 149.074219 50.519531 C 149.074219 50.351562 149.074219 50.269531 149.074219 50.1875 Z M 152.289062 45.066406 C 152.207031 45.394531 152.125 45.726562 151.878906 45.972656 C 151.628906 46.304688 151.382812 46.636719 151.136719 46.964844 C 151.464844 46.964844 151.792969 47.128906 152.125 47.378906 C 152.535156 47.710938 152.785156 48.121094 152.949219 48.699219 C 153.03125 49.113281 153.113281 49.445312 153.195312 49.855469 C 152.867188 48.289062 152.535156 46.71875 152.289062 45.066406 Z M 152.289062 45.066406 " fill-opacity="1" fill-rule="nonzero"/><path fill="#1f88e4" d="M 151.710938 51.675781 C 151.300781 51.507812 150.722656 51.097656 150.640625 50.601562 C 150.308594 49.691406 150.0625 48.699219 149.898438 47.792969 C 149.734375 46.882812 149.570312 45.890625 149.320312 44.984375 C 149.074219 43.910156 149.980469 42.835938 151.050781 42.667969 C 152.207031 42.503906 153.195312 43.332031 153.445312 44.40625 C 153.691406 45.644531 153.9375 46.882812 154.1875 48.121094 C 154.269531 48.453125 154.351562 48.699219 154.433594 49.03125 C 154.597656 49.609375 154.679688 50.105469 154.433594 50.601562 C 154.269531 51.097656 153.855469 51.507812 153.359375 51.757812 C 153.113281 51.839844 152.785156 51.921875 152.535156 51.921875 C 152.289062 51.757812 151.960938 51.757812 151.710938 51.675781 Z M 154.101562 47.875 C 154.101562 47.792969 154.019531 47.625 154.019531 47.542969 C 154.019531 47.625 154.101562 47.710938 154.101562 47.875 Z M 154.101562 47.875 " fill-opacity="1" fill-rule="nonzero"/><path fill="#000000" d="M 162.101562 88.109375 C 161.605469 87.941406 161.113281 87.53125 160.945312 87.035156 C 159.296875 82.324219 157.566406 77.699219 155.835938 73.074219 C 154.351562 68.941406 152.703125 64.8125 151.136719 60.597656 C 150.722656 59.523438 150.308594 58.53125 149.980469 57.457031 C 149.816406 56.960938 149.570312 56.464844 149.402344 55.96875 C 149.238281 55.640625 149.15625 55.308594 149.074219 54.980469 C 149.074219 54.898438 149.074219 54.730469 149.074219 54.648438 C 149.074219 54.402344 148.992188 54.070312 149.074219 53.824219 C 149.074219 53.492188 149.238281 52.996094 149.402344 52.667969 C 149.570312 52.171875 149.898438 51.757812 150.144531 51.34375 C 151.464844 49.691406 153.03125 48.371094 154.597656 47.046875 C 155.753906 46.058594 156.90625 45.066406 158.0625 44.074219 C 161.523438 41.101562 164.988281 38.125 168.53125 35.234375 C 170.839844 33.332031 173.234375 31.433594 175.542969 29.535156 C 176.859375 28.460938 178.261719 27.46875 179.582031 26.476562 C 180.242188 25.980469 180.984375 25.566406 181.644531 25.070312 C 182.46875 24.578125 183.210938 24 184.035156 23.503906 C 184.445312 23.253906 185.105469 23.253906 185.601562 23.417969 C 186.09375 23.585938 186.507812 24 186.753906 24.492188 C 187.003906 24.988281 187.003906 25.566406 186.835938 26.0625 C 186.671875 26.640625 186.261719 26.972656 185.765625 27.21875 C 185.105469 27.632812 184.445312 28.128906 183.703125 28.542969 C 183.703125 28.542969 183.703125 28.542969 183.785156 28.542969 C 179.910156 31.1875 176.367188 34.160156 172.738281 37.050781 C 170.925781 38.539062 169.191406 40.027344 167.378906 41.511719 C 165.648438 43 163.914062 44.488281 162.183594 45.972656 C 161.113281 46.882812 160.039062 47.792969 158.96875 48.699219 C 157.070312 50.269531 155.175781 51.839844 153.445312 53.65625 C 153.277344 53.824219 153.195312 53.988281 153.03125 54.234375 C 153.445312 55.144531 153.773438 56.136719 154.101562 57.042969 C 154.515625 58.203125 155.011719 59.359375 155.421875 60.515625 C 156.164062 62.496094 156.90625 64.480469 157.648438 66.378906 C 159.296875 70.675781 160.863281 75.054688 162.429688 79.351562 C 163.171875 81.25 163.832031 83.152344 164.492188 85.050781 C 164.65625 85.628906 164.824219 86.042969 164.574219 86.621094 C 164.410156 87.117188 163.996094 87.53125 163.503906 87.777344 C 163.253906 87.941406 162.925781 88.027344 162.597656 88.027344 C 162.511719 88.191406 162.347656 88.191406 162.101562 88.109375 Z M 152.949219 54.730469 C 152.949219 54.648438 152.949219 54.566406 153.03125 54.484375 C 152.949219 54.566406 152.949219 54.648438 152.949219 54.730469 Z M 153.113281 54.566406 C 153.03125 54.484375 153.03125 54.484375 153.113281 54.566406 C 153.03125 54.484375 153.03125 54.484375 153.113281 54.566406 Z M 153.03125 54.234375 C 153.03125 54.234375 153.03125 54.152344 153.113281 54.152344 C 153.113281 54.152344 153.03125 54.152344 153.03125 54.234375 Z M 152.949219 54.152344 C 152.949219 54.070312 152.949219 53.988281 152.949219 53.988281 C 152.949219 53.988281 152.949219 54.070312 152.949219 54.152344 Z M 152.949219 54.152344 " fill-opacity="1" fill-rule="nonzero"/><path fill="#000000" d="M 162.597656 89.429688 C 161.523438 89.101562 160.945312 87.859375 161.277344 86.785156 C 164.246094 78.027344 167.132812 69.1875 170.097656 60.433594 C 171.5 56.136719 172.984375 51.839844 174.46875 47.542969 C 175.953125 43.164062 177.601562 38.785156 179.335938 34.40625 C 180.40625 31.679688 181.726562 28.957031 182.714844 26.144531 C 183.128906 25.070312 184.28125 24.492188 185.351562 24.824219 C 186.425781 25.15625 187.003906 26.394531 186.671875 27.46875 C 185.929688 29.535156 185.023438 31.433594 184.199219 33.417969 C 183.375 35.480469 182.550781 37.546875 181.726562 39.613281 C 180.160156 43.660156 178.757812 47.792969 177.355469 52.003906 C 174.386719 60.84375 171.417969 69.769531 168.449219 78.609375 C 167.378906 81.746094 166.304688 84.96875 165.234375 88.109375 C 164.988281 88.933594 164.164062 89.511719 163.253906 89.511719 C 163.007812 89.511719 162.761719 89.429688 162.597656 89.429688 Z M 162.597656 89.429688 " fill-opacity="1" fill-rule="nonzero"/><path fill="#000000" d="M 150.558594 56.382812 C 150.0625 56.382812 149.484375 56.136719 149.15625 55.640625 C 147.507812 53.246094 145.777344 50.929688 143.960938 48.699219 C 143.21875 47.792969 143.300781 46.550781 144.207031 45.808594 C 145.035156 45.066406 146.433594 45.148438 147.09375 46.058594 C 148.910156 48.289062 150.640625 50.683594 152.289062 52.996094 C 152.621094 53.492188 152.867188 53.90625 152.785156 54.484375 C 152.785156 55.0625 152.453125 55.558594 152.042969 55.886719 C 151.628906 56.21875 151.21875 56.382812 150.722656 56.382812 C 150.640625 56.382812 150.558594 56.382812 150.558594 56.382812 Z M 150.558594 56.382812 " fill-opacity="1" fill-rule="nonzero"/><path fill="#000000" d="M 145.445312 47.792969 C 144.867188 47.792969 144.375 47.460938 144.042969 47.046875 C 143.714844 46.636719 143.550781 46.058594 143.550781 45.5625 C 143.550781 45.066406 143.796875 44.40625 144.292969 44.15625 C 144.949219 43.742188 145.609375 43.332031 146.269531 42.917969 C 146.765625 42.585938 147.257812 42.257812 147.753906 42.007812 C 148.828125 41.429688 149.980469 40.851562 151.050781 40.273438 C 152.125 39.695312 153.195312 39.28125 154.269531 38.785156 C 155.011719 38.457031 155.835938 38.042969 156.578125 37.710938 C 160.945312 35.648438 165.398438 33.582031 169.769531 31.433594 C 171.996094 30.359375 174.222656 29.285156 176.449219 28.210938 C 178.839844 27.136719 181.230469 26.144531 183.621094 25.238281 C 184.117188 25.070312 184.609375 24.988281 185.1875 25.15625 C 185.683594 25.320312 186.179688 25.734375 186.34375 26.230469 C 186.835938 27.21875 186.425781 28.542969 185.351562 28.957031 C 183.210938 29.78125 181.066406 30.691406 178.921875 31.597656 C 176.777344 32.507812 174.632812 33.582031 172.492188 34.65625 C 168.699219 36.554688 164.824219 38.375 160.945312 40.191406 C 158.390625 41.347656 155.917969 42.585938 153.359375 43.742188 C 152.289062 44.238281 151.136719 44.816406 150.0625 45.394531 C 149.074219 45.890625 148.25 46.46875 147.34375 47.046875 C 147.175781 47.128906 147.09375 47.214844 146.929688 47.296875 C 146.515625 47.625 146.105469 47.792969 145.609375 47.792969 C 145.527344 47.792969 145.527344 47.792969 145.445312 47.792969 Z M 145.445312 47.792969 " fill-opacity="1" fill-rule="nonzero"/><g clip-path="url(#id1)"><path fill="#000000" d="M 145.527344 48.453125 C 140.910156 46.71875 136.210938 45.066406 131.511719 43.332031 C 130.4375 42.917969 129.367188 42.503906 128.378906 42.171875 C 127.304688 41.761719 126.152344 41.347656 125.078125 40.933594 C 122.9375 40.273438 120.792969 39.613281 118.730469 38.867188 C 118.402344 38.785156 118.152344 38.703125 117.824219 38.539062 C 117.492188 38.457031 117.164062 38.289062 116.917969 38.125 C 116.667969 37.960938 116.339844 37.628906 116.175781 37.382812 C 115.84375 36.96875 115.597656 36.472656 115.679688 35.894531 C 115.679688 35.398438 116.007812 34.820312 116.421875 34.492188 C 117 33.996094 117.578125 33.582031 118.234375 33.25 C 118.894531 32.921875 119.636719 32.671875 120.378906 32.507812 C 121.945312 32.011719 123.429688 31.679688 124.996094 31.351562 C 126.480469 31.019531 127.882812 30.773438 129.367188 30.523438 C 131.511719 30.113281 133.738281 29.699219 135.882812 29.367188 C 138.023438 29.039062 140.25 28.625 142.394531 28.292969 C 144.785156 27.964844 147.175781 27.632812 149.484375 27.304688 C 154.351562 26.640625 159.214844 25.898438 164.082031 25.238281 C 168.285156 24.660156 172.492188 24.082031 176.695312 23.335938 C 178.097656 23.089844 179.5 22.839844 180.902344 22.59375 C 182.136719 22.347656 183.375 22.179688 184.609375 21.851562 C 185.683594 21.519531 186.835938 22.429688 187.003906 23.503906 C 187.085938 24 187.003906 24.578125 186.671875 24.988281 C 186.34375 25.484375 185.847656 25.734375 185.351562 25.898438 C 184.199219 26.230469 183.042969 26.394531 181.808594 26.640625 C 180.820312 26.808594 179.828125 26.972656 178.921875 27.136719 C 176.613281 27.550781 174.304688 27.964844 171.996094 28.292969 C 169.933594 28.625 167.789062 28.871094 165.730469 29.203125 C 163.253906 29.535156 160.78125 29.945312 158.308594 30.277344 C 153.691406 30.9375 149.074219 31.597656 144.457031 32.175781 C 140.167969 32.753906 135.964844 33.5 131.675781 34.242188 C 128.789062 34.738281 125.902344 35.234375 123.101562 35.976562 C 123.925781 36.226562 124.75 36.472656 125.492188 36.804688 C 127.554688 37.464844 129.53125 38.207031 131.511719 39.035156 C 135.882812 40.6875 140.25 42.171875 144.621094 43.824219 C 145.363281 44.074219 146.105469 44.40625 146.765625 44.652344 C 147.835938 45.066406 148.414062 46.222656 148.085938 47.296875 C 147.835938 48.121094 147.011719 48.699219 146.105469 48.699219 C 146.023438 48.535156 145.777344 48.535156 145.527344 48.453125 Z M 145.527344 48.453125 " fill-opacity="1" fill-rule="nonzero"/></g><path fill="#000000" d="M 136.375 60.347656 C 136.046875 60.101562 135.796875 59.6875 135.796875 59.273438 C 135.796875 59.191406 135.796875 59.109375 135.796875 59.027344 C 135.714844 58.695312 135.714844 58.285156 135.882812 57.953125 C 136.128906 56.878906 136.707031 55.804688 137.28125 54.898438 C 137.859375 53.90625 138.355469 52.914062 138.933594 51.921875 C 140.003906 50.105469 141.074219 48.289062 142.230469 46.46875 C 142.808594 45.476562 144.125 45.230469 145.117188 45.890625 C 146.105469 46.550781 146.269531 47.792969 145.691406 48.78125 C 144.207031 51.179688 142.726562 53.574219 141.40625 56.054688 C 142.230469 55.804688 143.054688 55.558594 143.796875 55.308594 C 144.867188 54.980469 146.023438 54.730469 147.09375 54.484375 C 148.25 54.234375 149.484375 53.988281 150.722656 53.824219 C 151.792969 53.65625 152.949219 54.320312 153.113281 55.476562 C 153.359375 56.550781 152.621094 57.707031 151.464844 57.871094 C 150.804688 57.953125 150.0625 58.117188 149.402344 58.203125 C 148.910156 58.285156 148.496094 58.367188 148 58.449219 C 146.929688 58.695312 145.859375 58.945312 144.785156 59.273438 C 142.808594 59.855469 140.746094 60.433594 138.765625 61.011719 C 138.601562 61.09375 138.4375 61.09375 138.273438 61.09375 C 137.53125 61.09375 136.871094 60.761719 136.375 60.347656 Z M 136.375 60.347656 " fill-opacity="1" fill-rule="nonzero"/><g clip-path="url(#id2)"><path fill="#000000" d="M 0.65625 126.855469 C 0.492188 125.535156 0.410156 124.292969 0.246094 122.972656 C 0.078125 120.824219 -0.0859375 118.675781 -0.00390625 116.527344 C 1.398438 116.859375 2.71875 117.1875 4.121094 117.601562 C 4.121094 119.335938 4.285156 121.15625 4.449219 122.890625 C 4.53125 124.046875 4.613281 125.285156 4.78125 126.441406 C 4.863281 127.597656 3.953125 128.671875 2.882812 128.753906 C 2.800781 128.753906 2.71875 128.753906 2.636719 128.753906 C 1.644531 128.753906 0.738281 127.929688 0.65625 126.855469 Z M 0.65625 126.855469 " fill-opacity="1" fill-rule="nonzero"/></g><path fill="#000000" d="M 0.328125 113.636719 C 0.574219 112.5625 0.902344 111.40625 1.234375 110.332031 C 1.730469 108.679688 2.304688 106.945312 2.882812 105.375 C 3.460938 103.804688 4.121094 102.320312 4.863281 100.832031 C 5.109375 100.914062 5.273438 100.996094 5.523438 100.996094 C 6.097656 101.160156 6.675781 101.328125 7.253906 101.492188 C 7.746094 101.65625 8.242188 101.738281 8.65625 101.824219 C 8.738281 101.824219 8.820312 101.90625 8.984375 101.90625 C 8.574219 102.648438 8.242188 103.390625 7.832031 104.136719 C 6.839844 106.117188 6.097656 108.183594 5.4375 110.332031 C 5.523438 110.167969 5.523438 110 5.605469 109.835938 C 5.109375 111.488281 4.613281 113.058594 4.367188 114.710938 C 2.964844 114.296875 1.644531 113.96875 0.328125 113.636719 Z M 0.328125 113.636719 " fill-opacity="1" fill-rule="nonzero"/><path fill="#000000" d="M 10.222656 99.34375 C 9.480469 99.179688 8.65625 99.015625 7.914062 98.765625 C 7.417969 98.601562 6.839844 98.433594 6.347656 98.269531 C 6.59375 97.855469 6.921875 97.363281 7.171875 96.949219 C 8.820312 94.304688 10.714844 91.742188 12.859375 89.511719 C 13.847656 88.4375 14.921875 87.449219 16.074219 86.539062 C 16.570312 87.035156 17.066406 87.613281 17.558594 88.109375 C 17.972656 88.605469 18.46875 89.101562 18.796875 89.59375 C 18.300781 90.007812 17.808594 90.421875 17.3125 90.835938 C 14.839844 93.230469 12.695312 95.957031 10.796875 98.765625 C 10.714844 98.929688 10.550781 99.097656 10.46875 99.34375 C 10.386719 99.34375 10.304688 99.34375 10.222656 99.34375 Z M 10.222656 99.34375 " fill-opacity="1" fill-rule="nonzero"/><path fill="#000000" d="M 73.464844 95.710938 C 71.980469 95.542969 70.496094 95.378906 69.011719 95.128906 C 67.527344 94.882812 66.042969 94.386719 64.558594 93.890625 C 65.21875 92.652344 65.796875 91.414062 66.453125 90.175781 C 66.703125 90.257812 66.949219 90.339844 67.195312 90.421875 C 68.847656 90.917969 70.578125 91.246094 72.308594 91.414062 C 74.039062 91.660156 75.855469 91.824219 77.585938 91.910156 C 77.585938 91.910156 77.667969 91.910156 77.667969 91.910156 C 77.667969 91.910156 77.75 91.910156 77.75 91.910156 C 78.574219 91.910156 79.398438 91.910156 80.308594 91.910156 C 80.308594 92.074219 80.308594 92.238281 80.308594 92.40625 C 80.308594 92.984375 80.308594 93.5625 80.308594 94.222656 C 80.308594 94.800781 80.226562 95.460938 80.226562 96.039062 C 80.226562 96.039062 80.226562 96.039062 80.140625 96.039062 C 78 96.121094 75.691406 95.957031 73.464844 95.710938 Z M 78 91.910156 C 77.914062 91.910156 77.832031 91.910156 77.75 91.910156 C 77.914062 91.910156 77.914062 91.910156 78 91.910156 Z M 78 91.910156 " fill-opacity="1" fill-rule="nonzero"/><path fill="#000000" d="M 83.191406 95.128906 C 83.277344 94.140625 83.277344 93.148438 83.191406 92.238281 C 83.191406 92.15625 83.191406 91.992188 83.191406 91.910156 C 84.265625 91.824219 85.335938 91.742188 86.410156 91.660156 C 89.378906 91.414062 92.429688 90.917969 95.3125 90.257812 C 95.644531 90.175781 96.054688 90.089844 96.386719 90.007812 C 96.46875 90.175781 96.46875 90.339844 96.550781 90.585938 C 96.796875 91.246094 97.046875 91.992188 97.292969 92.652344 C 97.457031 93.066406 97.621094 93.476562 97.703125 93.890625 C 93.003906 95.128906 88.140625 95.792969 83.277344 96.039062 C 83.191406 96.039062 83.109375 96.039062 83.027344 96.039062 C 83.109375 95.710938 83.191406 95.378906 83.191406 95.128906 Z M 83.191406 95.128906 " fill-opacity="1" fill-rule="nonzero"/><path fill="#000000" d="M 100.261719 92.15625 C 99.929688 91.164062 99.519531 90.175781 99.1875 89.101562 C 102.40625 88.027344 105.539062 86.703125 108.507812 85.132812 C 109.414062 84.636719 110.238281 84.144531 111.0625 83.648438 C 111.390625 84.058594 111.640625 84.472656 111.96875 84.886719 C 112.464844 85.628906 112.957031 86.289062 113.453125 87.035156 C 112.792969 87.449219 112.050781 87.859375 111.390625 88.191406 C 108.507812 89.761719 105.539062 91.082031 102.488281 92.238281 C 101.828125 92.488281 101.25 92.652344 100.589844 92.898438 C 100.425781 92.734375 100.34375 92.488281 100.261719 92.15625 Z M 100.261719 92.15625 " fill-opacity="1" fill-rule="nonzero"/><path fill="#000000" d="M 114.277344 83.316406 C 114.03125 82.902344 113.785156 82.574219 113.453125 82.160156 C 113.867188 81.914062 114.277344 81.582031 114.691406 81.332031 C 116.667969 79.929688 118.566406 78.359375 120.378906 76.625 C 121.945312 75.136719 123.429688 73.652344 124.914062 72 C 124.996094 72.082031 125.078125 72.164062 125.160156 72.246094 C 125.738281 72.90625 126.316406 73.566406 126.976562 74.144531 C 127.304688 74.394531 127.554688 74.722656 127.800781 74.972656 C 127.304688 75.550781 126.730469 76.046875 126.234375 76.625 C 125.160156 77.78125 124.007812 78.855469 122.769531 79.929688 C 121.617188 81.003906 120.378906 82.078125 119.058594 83.070312 C 117.988281 83.894531 116.835938 84.722656 115.679688 85.464844 C 115.351562 84.886719 114.855469 84.058594 114.277344 83.316406 Z M 114.277344 83.316406 " fill-opacity="1" fill-rule="nonzero"/><path fill="#000000" d="M 128.460938 71.667969 C 127.964844 71.089844 127.472656 70.59375 126.976562 70.015625 C 127.964844 68.941406 128.871094 67.867188 129.863281 66.792969 C 130.605469 65.96875 131.921875 65.800781 132.746094 66.546875 C 133.574219 67.289062 133.738281 68.609375 132.996094 69.4375 C 131.921875 70.59375 130.933594 71.832031 129.863281 72.988281 C 129.367188 72.492188 128.871094 72.082031 128.460938 71.667969 Z M 128.460938 71.667969 " fill-opacity="1" fill-rule="nonzero"/><path fill="#000000" d="M 56.890625 88.933594 C 55.902344 87.859375 55.160156 86.621094 54.5 85.300781 C 53.839844 83.976562 53.425781 82.65625 53.097656 81.332031 C 52.519531 81.332031 51.859375 81.332031 51.285156 81.332031 C 51.53125 80.011719 51.777344 78.609375 51.777344 77.203125 C 52.109375 77.203125 52.4375 77.203125 52.683594 77.203125 C 52.683594 76.871094 52.683594 76.625 52.683594 76.292969 C 52.683594 75.882812 52.769531 75.550781 52.769531 75.136719 C 52.851562 75.136719 53.015625 75.136719 53.097656 75.136719 C 54.085938 75.21875 54.992188 75.304688 55.984375 75.304688 C 56.3125 75.304688 56.558594 75.304688 56.890625 75.304688 C 56.808594 75.714844 56.808594 76.210938 56.726562 76.707031 C 56.726562 76.789062 56.726562 76.957031 56.726562 77.039062 C 58.871094 77.039062 61.09375 76.957031 63.238281 76.789062 C 64.3125 76.707031 65.300781 76.542969 66.371094 76.460938 C 66.371094 77.203125 66.371094 77.945312 66.371094 78.691406 C 66.371094 79.1875 66.453125 79.679688 66.453125 80.175781 C 66.453125 80.34375 66.453125 80.425781 66.453125 80.589844 C 65.21875 80.753906 64.0625 80.921875 62.828125 81.003906 C 61.34375 81.085938 59.941406 81.167969 58.457031 81.167969 C 58.042969 81.167969 57.632812 81.167969 57.136719 81.167969 C 57.386719 81.996094 57.714844 82.820312 58.128906 83.648438 C 58.621094 84.636719 59.28125 85.546875 59.941406 86.375 C 60.601562 87.035156 61.34375 87.613281 62.085938 88.109375 C 62.578125 88.4375 63.15625 88.6875 63.734375 89.015625 C 63.074219 90.257812 62.496094 91.496094 61.835938 92.734375 C 60.105469 91.824219 58.292969 90.585938 56.890625 88.933594 Z M 56.890625 88.933594 " fill-opacity="1" fill-rule="nonzero"/><path fill="#000000" d="M 55.984375 72.492188 C 55.078125 72.410156 54.167969 72.328125 53.261719 72.246094 C 53.34375 72.082031 53.34375 71.832031 53.425781 71.667969 C 53.839844 70.179688 54.417969 68.777344 55.078125 67.371094 C 55.820312 65.96875 56.726562 64.644531 57.714844 63.488281 C 58.621094 62.414062 59.609375 61.507812 60.683594 60.597656 C 61.09375 61.339844 61.507812 62 61.921875 62.746094 C 62.167969 63.242188 62.414062 63.820312 62.746094 64.316406 C 62.746094 64.316406 62.660156 64.316406 62.660156 64.398438 C 61.425781 65.554688 60.351562 66.792969 59.363281 68.199219 C 58.621094 69.4375 58.042969 70.757812 57.550781 72.164062 C 57.550781 72.246094 57.46875 72.410156 57.46875 72.492188 C 56.972656 72.578125 56.476562 72.492188 55.984375 72.492188 Z M 55.984375 72.492188 " fill-opacity="1" fill-rule="nonzero"/><path fill="#000000" d="M 64.3125 61.175781 C 63.898438 60.433594 63.488281 59.6875 62.992188 58.945312 C 63.570312 58.613281 64.144531 58.285156 64.722656 57.953125 C 67.527344 56.464844 70.496094 55.390625 73.628906 54.730469 C 74.289062 54.566406 74.949219 54.484375 75.691406 54.484375 C 75.441406 55.226562 75.195312 56.054688 74.949219 56.796875 C 74.78125 57.375 74.617188 57.953125 74.535156 58.53125 C 74.535156 58.613281 74.535156 58.695312 74.453125 58.78125 C 74.039062 58.863281 73.628906 58.945312 73.296875 59.027344 C 71.074219 59.605469 68.929688 60.433594 66.867188 61.507812 C 66.207031 61.835938 65.628906 62.25 64.972656 62.664062 C 64.804688 62.085938 64.558594 61.589844 64.3125 61.175781 Z M 64.3125 61.175781 " fill-opacity="1" fill-rule="nonzero"/><path fill="#000000" d="M 83.027344 66.050781 C 83.109375 65.554688 83.191406 65.058594 83.277344 64.5625 C 83.277344 63.902344 83.191406 63.242188 83.109375 62.578125 C 82.945312 62.085938 82.78125 61.589844 82.617188 61.175781 C 82.449219 60.84375 82.203125 60.597656 81.957031 60.265625 C 81.542969 59.855469 81.132812 59.523438 80.636719 59.191406 C 80.308594 59.027344 79.976562 58.863281 79.648438 58.695312 C 79.234375 58.613281 78.824219 58.53125 78.410156 58.53125 C 78.328125 58.53125 78.164062 58.53125 78.082031 58.53125 C 77.914062 58.53125 77.75 58.53125 77.585938 58.53125 C 77.585938 58.367188 77.667969 58.203125 77.667969 58.035156 C 77.75 57.621094 77.914062 57.210938 78 56.796875 C 78.082031 56.382812 78.246094 55.972656 78.328125 55.558594 C 78.492188 55.144531 78.574219 54.8125 78.742188 54.402344 C 79.234375 54.402344 79.8125 54.484375 80.308594 54.566406 C 81.132812 54.730469 81.875 55.0625 82.617188 55.558594 C 83.851562 56.300781 84.925781 57.292969 85.832031 58.53125 C 86.738281 59.769531 87.152344 61.339844 87.316406 62.746094 C 87.5625 64.066406 87.398438 65.472656 87.152344 66.792969 C 85.667969 66.546875 84.347656 66.296875 83.027344 66.050781 Z M 83.027344 66.050781 " fill-opacity="1" fill-rule="nonzero"/><path fill="#000000" d="M 69.421875 79.929688 C 69.421875 79.433594 69.339844 78.9375 69.339844 78.441406 C 69.339844 77.617188 69.339844 76.871094 69.339844 76.046875 C 70 75.964844 70.578125 75.796875 71.15625 75.714844 C 72.144531 75.46875 73.132812 75.21875 74.039062 74.808594 C 74.863281 74.476562 75.691406 74.144531 76.433594 73.734375 C 77.667969 73.074219 78.90625 72.246094 79.976562 71.335938 C 80.554688 70.757812 81.050781 70.179688 81.542969 69.519531 C 81.707031 69.273438 81.792969 69.023438 81.957031 68.777344 C 83.359375 69.023438 84.757812 69.273438 86.160156 69.601562 C 86.160156 69.683594 86.078125 69.769531 86.078125 69.769531 C 85.585938 70.925781 84.84375 72 84.101562 72.988281 C 83.359375 73.980469 82.285156 74.808594 81.296875 75.550781 C 80.308594 76.292969 79.316406 76.871094 78.246094 77.449219 C 77.089844 78.027344 76.019531 78.523438 74.78125 78.9375 C 73.050781 79.515625 71.238281 79.929688 69.421875 80.261719 C 69.421875 80.09375 69.421875 80.011719 69.421875 79.929688 Z M 69.421875 79.929688 " fill-opacity="1" fill-rule="nonzero"/><path fill="#000000" d="M 37.679688 80.011719 C 37.597656 79.269531 37.429688 78.609375 37.265625 77.863281 C 37.429688 77.863281 37.679688 77.78125 37.84375 77.78125 C 40.5625 77.449219 43.285156 77.203125 46.089844 77.203125 C 46.996094 77.203125 47.902344 77.203125 48.808594 77.203125 C 48.808594 77.367188 48.808594 77.449219 48.808594 77.617188 C 48.726562 78.855469 48.5625 80.09375 48.316406 81.332031 C 46.007812 81.332031 43.699219 81.417969 41.390625 81.582031 C 40.316406 81.664062 39.164062 81.828125 38.089844 81.914062 C 37.925781 81.332031 37.84375 80.671875 37.679688 80.011719 Z M 37.679688 80.011719 " fill-opacity="1" fill-rule="nonzero"/><path fill="#000000" d="M 20.199219 86.703125 C 19.621094 86.042969 19.042969 85.382812 18.382812 84.722656 C 18.960938 84.308594 19.457031 83.976562 20.035156 83.648438 C 24.402344 80.921875 29.433594 79.269531 34.460938 78.277344 C 34.546875 78.9375 34.710938 79.597656 34.792969 80.261719 C 34.875 80.921875 35.039062 81.664062 35.121094 82.324219 C 34.460938 82.40625 33.804688 82.574219 33.226562 82.738281 C 30.09375 83.480469 26.960938 84.554688 24.074219 86.042969 C 23.085938 86.621094 22.09375 87.199219 21.105469 87.859375 C 20.859375 87.449219 20.527344 87.117188 20.199219 86.703125 Z M 20.199219 86.703125 " fill-opacity="1" fill-rule="nonzero"/><g clip-path="url(#id3)"><path fill="#000000" d="M 183.375 30.027344 C 182.300781 29.699219 181.644531 28.542969 181.972656 27.46875 C 182.21875 26.890625 182.386719 26.230469 182.550781 25.652344 C 182.632812 25.484375 182.632812 25.402344 182.714844 25.238281 C 182.796875 24.742188 182.878906 24.328125 183.042969 23.832031 C 183.292969 23.089844 183.871094 22.59375 184.527344 22.429688 C 184.609375 22.429688 184.609375 22.429688 184.695312 22.429688 C 184.859375 22.347656 185.105469 22.347656 185.269531 22.347656 C 185.4375 22.347656 185.601562 22.347656 185.765625 22.429688 C 186.671875 22.675781 187.414062 23.503906 187.332031 24.492188 C 187.332031 25.238281 187.085938 25.980469 186.835938 26.640625 C 186.835938 26.722656 186.753906 26.808594 186.753906 26.890625 C 186.589844 27.304688 186.507812 27.796875 186.261719 28.210938 C 186.261719 28.292969 186.179688 28.292969 186.179688 28.375 C 186.09375 28.460938 186.011719 28.625 186.011719 28.707031 C 186.011719 28.789062 185.929688 28.871094 185.929688 28.871094 C 185.601562 29.617188 184.859375 30.113281 184.035156 30.113281 C 183.785156 30.113281 183.539062 30.027344 183.375 30.027344 Z M 183.375 30.027344 " fill-opacity="1" fill-rule="nonzero"/></g></svg>