<svg xmlns="http://www.w3.org/2000/svg" xmlns:xlink="http://www.w3.org/1999/xlink" width="120" zoomAndPan="magnify" viewBox="0 0 90 37.5" height="50" preserveAspectRatio="xMidYMid meet" version="1.0"><defs><g/><clipPath id="id1"><path d="M 0.59375 0.3125 L 8.644531 0.3125 L 8.644531 36.542969 L 0.59375 36.542969 Z M 0.59375 0.3125 " clip-rule="nonzero"/></clipPath><clipPath id="id2"><path d="M 81.332031 0.441406 L 89.382812 0.441406 L 89.382812 36.671875 L 81.332031 36.671875 Z M 81.332031 0.441406 " clip-rule="nonzero"/></clipPath></defs><g clip-path="url(#id1)"><path fill="#003479" d="M 2.71875 15.398438 L 0.59375 18.429688 L 2.71875 21.460938 L 2.71875 36.492188 L 8.644531 36.492188 L 8.644531 34.109375 L 5.214844 34.109375 L 5.214844 20.738281 L 3.597656 18.429688 L 5.214844 16.121094 L 5.214844 2.75 L 8.644531 2.75 L 8.644531 0.367188 L 2.71875 0.367188 L 2.71875 15.398438 " fill-opacity="1" fill-rule="nonzero"/></g><g fill="#003479" fill-opacity="1"><g transform="translate(10.690448, 32.213735)"><g><path d="M 7.734375 -5.515625 L 5.984375 0.078125 L 5.59375 0.078125 L 3.96875 -4.75 L 2.34375 0.078125 L 1.953125 0.078125 L 0.28125 -5.515625 L 0.75 -5.515625 L 2.15625 -0.59375 L 3.796875 -5.515625 L 4.140625 -5.515625 L 5.796875 -0.59375 L 7.28125 -5.515625 Z M 7.734375 -5.515625 "/></g></g></g><g fill="#003479" fill-opacity="1"><g transform="translate(19.860636, 32.213735)"><g><path d="M 4.203125 -0.375 L 4.203125 0 L 0.96875 0 L 0.96875 -5.515625 L 4.046875 -5.515625 L 4.046875 -5.140625 L 1.421875 -5.140625 L 1.421875 -3.109375 L 3.71875 -3.109375 L 3.71875 -2.734375 L 1.421875 -2.734375 L 1.421875 -0.375 Z M 4.203125 -0.375 "/></g></g></g><g fill="#003479" fill-opacity="1"><g transform="translate(25.714842, 32.213735)"><g><path d="M 3.390625 -2.90625 C 3.753906 -2.820312 4.035156 -2.660156 4.234375 -2.421875 C 4.429688 -2.179688 4.53125 -1.882812 4.53125 -1.53125 C 4.53125 -1.238281 4.457031 -0.972656 4.3125 -0.734375 C 4.175781 -0.503906 3.96875 -0.320312 3.6875 -0.1875 C 3.40625 -0.0625 3.066406 0 2.671875 0 L 0.96875 0 L 0.96875 -5.515625 L 2.671875 -5.515625 C 3.191406 -5.515625 3.585938 -5.382812 3.859375 -5.125 C 4.140625 -4.863281 4.28125 -4.519531 4.28125 -4.09375 C 4.28125 -3.8125 4.203125 -3.5625 4.046875 -3.34375 C 3.890625 -3.132812 3.671875 -2.988281 3.390625 -2.90625 Z M 1.421875 -5.140625 L 1.421875 -3.078125 L 2.671875 -3.078125 C 3.046875 -3.078125 3.332031 -3.171875 3.53125 -3.359375 C 3.726562 -3.546875 3.828125 -3.789062 3.828125 -4.09375 C 3.828125 -4.4375 3.726562 -4.695312 3.53125 -4.875 C 3.34375 -5.050781 3.054688 -5.140625 2.671875 -5.140625 Z M 2.671875 -0.375 C 3.117188 -0.375 3.460938 -0.476562 3.703125 -0.6875 C 3.953125 -0.894531 4.078125 -1.179688 4.078125 -1.546875 C 4.078125 -1.921875 3.957031 -2.207031 3.71875 -2.40625 C 3.476562 -2.601562 3.128906 -2.703125 2.671875 -2.703125 L 1.421875 -2.703125 L 1.421875 -0.375 Z M 2.671875 -0.375 "/></g></g></g><g fill="#003479" fill-opacity="1"><g transform="translate(31.804167, 32.213735)"><g/></g></g><g fill="#003479" fill-opacity="1"><g transform="translate(34.991, 32.213735)"><g><path d="M 2.75 -5.515625 C 3.300781 -5.515625 3.769531 -5.394531 4.15625 -5.15625 C 4.550781 -4.914062 4.847656 -4.585938 5.046875 -4.171875 C 5.242188 -3.753906 5.34375 -3.285156 5.34375 -2.765625 C 5.34375 -2.222656 5.242188 -1.742188 5.046875 -1.328125 C 4.847656 -0.910156 4.550781 -0.582031 4.15625 -0.34375 C 3.769531 -0.113281 3.300781 0 2.75 0 L 0.96875 0 L 0.96875 -5.515625 Z M 2.75 -0.375 C 3.425781 -0.375 3.945312 -0.585938 4.3125 -1.015625 C 4.6875 -1.441406 4.875 -2.019531 4.875 -2.75 C 4.875 -3.476562 4.6875 -4.054688 4.3125 -4.484375 C 3.945312 -4.921875 3.425781 -5.140625 2.75 -5.140625 L 1.421875 -5.140625 L 1.421875 -0.375 Z M 2.75 -0.375 "/></g></g></g><g fill="#003479" fill-opacity="1"><g transform="translate(41.972156, 32.213735)"><g><path d="M 4.203125 -0.375 L 4.203125 0 L 0.96875 0 L 0.96875 -5.515625 L 4.046875 -5.515625 L 4.046875 -5.140625 L 1.421875 -5.140625 L 1.421875 -3.109375 L 3.71875 -3.109375 L 3.71875 -2.734375 L 1.421875 -2.734375 L 1.421875 -0.375 Z M 4.203125 -0.375 "/></g></g></g><g fill="#003479" fill-opacity="1"><g transform="translate(47.826363, 32.213735)"><g><path d="M 4.984375 -5.515625 L 2.828125 0.078125 L 2.4375 0.078125 L 0.28125 -5.515625 L 0.75 -5.515625 L 2.640625 -0.578125 L 4.53125 -5.515625 Z M 4.984375 -5.515625 "/></g></g></g><g fill="#003479" fill-opacity="1"><g transform="translate(54.2481, 32.213735)"><g><path d="M 4.203125 -0.375 L 4.203125 0 L 0.96875 0 L 0.96875 -5.515625 L 4.046875 -5.515625 L 4.046875 -5.140625 L 1.421875 -5.140625 L 1.421875 -3.109375 L 3.71875 -3.109375 L 3.71875 -2.734375 L 1.421875 -2.734375 L 1.421875 -0.375 Z M 4.203125 -0.375 "/></g></g></g><g fill="#003479" fill-opacity="1"><g transform="translate(60.102304, 32.213735)"><g><path d="M 4.203125 -0.375 L 4.203125 0 L 0.96875 0 L 0.96875 -5.515625 L 1.421875 -5.515625 L 1.421875 -0.375 Z M 4.203125 -0.375 "/></g></g></g><g fill="#003479" fill-opacity="1"><g transform="translate(65.794359, 32.213735)"><g><path d="M 3.0625 0.140625 C 2.507812 0.140625 2.039062 0.015625 1.65625 -0.234375 C 1.269531 -0.492188 0.976562 -0.84375 0.78125 -1.28125 C 0.582031 -1.726562 0.484375 -2.210938 0.484375 -2.734375 C 0.484375 -3.265625 0.582031 -3.75 0.78125 -4.1875 C 0.976562 -4.625 1.269531 -4.972656 1.65625 -5.234375 C 2.039062 -5.492188 2.507812 -5.625 3.0625 -5.625 C 3.613281 -5.625 4.082031 -5.492188 4.46875 -5.234375 C 4.851562 -4.972656 5.144531 -4.625 5.34375 -4.1875 C 5.539062 -3.757812 5.640625 -3.28125 5.640625 -2.75 C 5.640625 -2.21875 5.539062 -1.734375 5.34375 -1.296875 C 5.144531 -0.859375 4.851562 -0.507812 4.46875 -0.25 C 4.082031 0.0078125 3.613281 0.140625 3.0625 0.140625 Z M 3.0625 -0.25 C 3.507812 -0.25 3.890625 -0.351562 4.203125 -0.5625 C 4.523438 -0.78125 4.769531 -1.078125 4.9375 -1.453125 C 5.101562 -1.835938 5.1875 -2.269531 5.1875 -2.75 C 5.1875 -3.226562 5.101562 -3.65625 4.9375 -4.03125 C 4.769531 -4.40625 4.523438 -4.703125 4.203125 -4.921875 C 3.890625 -5.140625 3.507812 -5.25 3.0625 -5.25 C 2.613281 -5.25 2.226562 -5.140625 1.90625 -4.921875 C 1.59375 -4.703125 1.351562 -4.40625 1.1875 -4.03125 C 1.019531 -3.65625 0.9375 -3.226562 0.9375 -2.75 C 0.9375 -2.269531 1.019531 -1.835938 1.1875 -1.453125 C 1.351562 -1.078125 1.59375 -0.78125 1.90625 -0.5625 C 2.226562 -0.351562 2.613281 -0.25 3.0625 -0.25 Z M 3.0625 -0.25 "/></g></g></g><g fill="#003479" fill-opacity="1"><g transform="translate(73.083596, 32.213735)"><g><path d="M 2.671875 -5.515625 C 3.066406 -5.515625 3.40625 -5.445312 3.6875 -5.3125 C 3.96875 -5.175781 4.175781 -4.992188 4.3125 -4.765625 C 4.457031 -4.535156 4.53125 -4.273438 4.53125 -3.984375 C 4.53125 -3.515625 4.367188 -3.140625 4.046875 -2.859375 C 3.722656 -2.578125 3.265625 -2.4375 2.671875 -2.4375 L 1.421875 -2.4375 L 1.421875 0 L 0.96875 0 L 0.96875 -5.515625 Z M 2.671875 -2.8125 C 3.128906 -2.8125 3.476562 -2.90625 3.71875 -3.09375 C 3.957031 -3.289062 4.078125 -3.582031 4.078125 -3.96875 C 4.078125 -4.332031 3.953125 -4.617188 3.703125 -4.828125 C 3.460938 -5.035156 3.117188 -5.140625 2.671875 -5.140625 L 1.421875 -5.140625 L 1.421875 -2.8125 Z M 2.671875 -2.8125 "/></g></g></g><g fill="#003479" fill-opacity="1"><g transform="translate(9.728581, 22.129476)"><g><path d="M 7.78125 -0.96875 L 7.78125 0 L 0.625 0 L 0.625 -0.96875 L 0.921875 -0.96875 C 1.191406 -0.96875 1.441406 -0.988281 1.671875 -1.03125 C 1.898438 -1.070312 2.097656 -1.148438 2.265625 -1.265625 C 2.429688 -1.378906 2.566406 -1.546875 2.671875 -1.765625 C 2.773438 -1.984375 2.828125 -2.273438 2.828125 -2.640625 L 2.828125 -11.328125 L 0.71875 -11.328125 L 0.71875 -12.421875 L 2.828125 -12.421875 L 2.828125 -13.578125 C 2.828125 -14.273438 2.921875 -14.882812 3.109375 -15.40625 C 3.296875 -15.9375 3.566406 -16.378906 3.921875 -16.734375 C 4.273438 -17.097656 4.703125 -17.375 5.203125 -17.5625 C 5.710938 -17.75 6.285156 -17.84375 6.921875 -17.84375 C 7.523438 -17.84375 8.035156 -17.800781 8.453125 -17.71875 C 8.867188 -17.644531 9.203125 -17.535156 9.453125 -17.390625 C 9.703125 -17.242188 9.882812 -17.070312 10 -16.875 C 10.113281 -16.6875 10.171875 -16.46875 10.171875 -16.21875 C 10.171875 -16.007812 10.125 -15.820312 10.03125 -15.65625 C 9.9375 -15.5 9.800781 -15.363281 9.625 -15.25 C 9.457031 -15.144531 9.257812 -15.0625 9.03125 -15 C 8.800781 -14.945312 8.546875 -14.921875 8.265625 -14.921875 C 8.265625 -15.160156 8.238281 -15.390625 8.1875 -15.609375 C 8.144531 -15.828125 8.0625 -16.023438 7.9375 -16.203125 C 7.820312 -16.378906 7.664062 -16.519531 7.46875 -16.625 C 7.28125 -16.726562 7.039062 -16.78125 6.75 -16.78125 C 6.414062 -16.78125 6.132812 -16.710938 5.90625 -16.578125 C 5.6875 -16.453125 5.507812 -16.265625 5.375 -16.015625 C 5.238281 -15.765625 5.140625 -15.453125 5.078125 -15.078125 C 5.023438 -14.710938 5 -14.285156 5 -13.796875 L 5 -12.421875 L 8.265625 -12.421875 L 8.265625 -11.328125 L 5 -11.328125 L 5 -2.640625 C 5 -2.273438 5.050781 -1.984375 5.15625 -1.765625 C 5.257812 -1.546875 5.394531 -1.378906 5.5625 -1.265625 C 5.726562 -1.148438 5.925781 -1.070312 6.15625 -1.03125 C 6.394531 -0.988281 6.644531 -0.96875 6.90625 -0.96875 Z M 7.78125 -0.96875 "/></g></g></g><g fill="#003479" fill-opacity="1"><g transform="translate(18.283068, 22.129476)"><g><path d="M 12.09375 -6.234375 C 12.09375 -4.054688 11.628906 -2.4375 10.703125 -1.375 C 9.785156 -0.3125 8.4375 0.21875 6.65625 0.21875 C 5.8125 0.21875 5.054688 0.0859375 4.390625 -0.171875 C 3.734375 -0.429688 3.171875 -0.828125 2.703125 -1.359375 C 2.242188 -1.898438 1.890625 -2.578125 1.640625 -3.390625 C 1.398438 -4.203125 1.28125 -5.148438 1.28125 -6.234375 C 1.28125 -8.398438 1.738281 -10.007812 2.65625 -11.0625 C 3.570312 -12.125 4.925781 -12.65625 6.71875 -12.65625 C 7.5625 -12.65625 8.3125 -12.523438 8.96875 -12.265625 C 9.632812 -12.003906 10.195312 -11.609375 10.65625 -11.078125 C 11.125 -10.546875 11.476562 -9.875 11.71875 -9.0625 C 11.96875 -8.257812 12.09375 -7.316406 12.09375 -6.234375 Z M 3.515625 -6.234375 C 3.515625 -5.367188 3.570312 -4.609375 3.6875 -3.953125 C 3.800781 -3.296875 3.984375 -2.75 4.234375 -2.3125 C 4.484375 -1.875 4.8125 -1.539062 5.21875 -1.3125 C 5.625 -1.082031 6.117188 -0.96875 6.703125 -0.96875 C 7.273438 -0.96875 7.757812 -1.082031 8.15625 -1.3125 C 8.5625 -1.539062 8.890625 -1.875 9.140625 -2.3125 C 9.390625 -2.75 9.566406 -3.296875 9.671875 -3.953125 C 9.785156 -4.609375 9.84375 -5.367188 9.84375 -6.234375 C 9.84375 -7.097656 9.785156 -7.851562 9.671875 -8.5 C 9.554688 -9.144531 9.375 -9.679688 9.125 -10.109375 C 8.875 -10.546875 8.546875 -10.875 8.140625 -11.09375 C 7.742188 -11.3125 7.253906 -11.421875 6.671875 -11.421875 C 6.085938 -11.421875 5.597656 -11.3125 5.203125 -11.09375 C 4.804688 -10.875 4.484375 -10.546875 4.234375 -10.109375 C 3.984375 -9.679688 3.800781 -9.144531 3.6875 -8.5 C 3.570312 -7.851562 3.515625 -7.097656 3.515625 -6.234375 Z M 3.515625 -6.234375 "/></g></g></g><g fill="#003479" fill-opacity="1"><g transform="translate(31.65794, 22.129476)"><g><path d="M 7.453125 0 L 0.765625 0 L 0.765625 -0.96875 L 0.84375 -0.96875 C 1.101562 -0.96875 1.347656 -0.988281 1.578125 -1.03125 C 1.804688 -1.070312 2.003906 -1.148438 2.171875 -1.265625 C 2.347656 -1.378906 2.484375 -1.546875 2.578125 -1.765625 C 2.679688 -1.984375 2.734375 -2.273438 2.734375 -2.640625 L 2.734375 -9.859375 C 2.734375 -10.203125 2.679688 -10.476562 2.578125 -10.6875 C 2.484375 -10.894531 2.347656 -11.054688 2.171875 -11.171875 C 1.992188 -11.285156 1.789062 -11.359375 1.5625 -11.390625 C 1.332031 -11.429688 1.09375 -11.453125 0.84375 -11.453125 L 0.765625 -11.453125 L 0.765625 -12.421875 L 4.328125 -12.421875 L 4.78125 -10.125 L 4.890625 -10.125 C 5.035156 -10.46875 5.1875 -10.789062 5.34375 -11.09375 C 5.507812 -11.40625 5.707031 -11.675781 5.9375 -11.90625 C 6.164062 -12.132812 6.445312 -12.316406 6.78125 -12.453125 C 7.125 -12.585938 7.550781 -12.65625 8.0625 -12.65625 C 8.90625 -12.65625 9.53125 -12.503906 9.9375 -12.203125 C 10.351562 -11.910156 10.5625 -11.5 10.5625 -10.96875 C 10.5625 -10.726562 10.519531 -10.503906 10.4375 -10.296875 C 10.363281 -10.085938 10.238281 -9.910156 10.0625 -9.765625 C 9.894531 -9.617188 9.675781 -9.503906 9.40625 -9.421875 C 9.132812 -9.347656 8.800781 -9.3125 8.40625 -9.3125 C 8.40625 -9.957031 8.3125 -10.421875 8.125 -10.703125 C 7.945312 -10.984375 7.632812 -11.125 7.1875 -11.125 C 6.894531 -11.125 6.632812 -11.039062 6.40625 -10.875 C 6.1875 -10.71875 5.988281 -10.503906 5.8125 -10.234375 C 5.644531 -9.960938 5.503906 -9.65625 5.390625 -9.3125 C 5.273438 -8.96875 5.179688 -8.609375 5.109375 -8.234375 C 5.035156 -7.867188 4.984375 -7.503906 4.953125 -7.140625 C 4.921875 -6.785156 4.90625 -6.460938 4.90625 -6.171875 L 4.90625 -2.515625 C 4.90625 -2.179688 4.957031 -1.910156 5.0625 -1.703125 C 5.164062 -1.492188 5.300781 -1.335938 5.46875 -1.234375 C 5.644531 -1.128906 5.847656 -1.054688 6.078125 -1.015625 C 6.304688 -0.984375 6.550781 -0.96875 6.8125 -0.96875 L 7.453125 -0.96875 Z M 7.453125 0 "/></g></g></g><g fill="#8bad70" fill-opacity="1"><g transform="translate(42.575639, 22.129476)"><g><path d="M 4.6875 -5.53125 L 3.796875 -3.09375 C 3.734375 -2.914062 3.679688 -2.738281 3.640625 -2.5625 C 3.609375 -2.382812 3.59375 -2.234375 3.59375 -2.109375 C 3.59375 -1.710938 3.71875 -1.421875 3.96875 -1.234375 C 4.21875 -1.054688 4.601562 -0.96875 5.125 -0.96875 L 5.65625 -0.96875 L 5.65625 0 L 0 0 L 0 -0.96875 L 0.4375 -0.96875 C 0.664062 -0.96875 0.859375 -0.992188 1.015625 -1.046875 C 1.171875 -1.097656 1.3125 -1.191406 1.4375 -1.328125 C 1.570312 -1.460938 1.695312 -1.644531 1.8125 -1.875 C 1.925781 -2.113281 2.054688 -2.414062 2.203125 -2.78125 L 7.34375 -16.546875 L 9.15625 -16.546875 L 14.390625 -2.203125 C 14.484375 -1.960938 14.578125 -1.765625 14.671875 -1.609375 C 14.765625 -1.453125 14.875 -1.328125 15 -1.234375 C 15.125 -1.140625 15.269531 -1.070312 15.4375 -1.03125 C 15.601562 -0.988281 15.800781 -0.96875 16.03125 -0.96875 L 16.34375 -0.96875 L 16.34375 0 L 9.96875 0 L 9.96875 -0.96875 L 10.5 -0.96875 C 11.425781 -0.96875 11.890625 -1.335938 11.890625 -2.078125 C 11.890625 -2.210938 11.875 -2.347656 11.84375 -2.484375 C 11.8125 -2.617188 11.765625 -2.769531 11.703125 -2.9375 L 10.765625 -5.53125 Z M 8.921875 -10.75 C 8.671875 -11.4375 8.445312 -12.078125 8.25 -12.671875 C 8.050781 -13.273438 7.890625 -13.859375 7.765625 -14.421875 C 7.710938 -14.140625 7.648438 -13.867188 7.578125 -13.609375 C 7.503906 -13.347656 7.425781 -13.082031 7.34375 -12.8125 C 7.257812 -12.539062 7.164062 -12.253906 7.0625 -11.953125 C 6.957031 -11.648438 6.835938 -11.320312 6.703125 -10.96875 L 5.125 -6.703125 L 10.359375 -6.703125 Z M 8.921875 -10.75 "/></g></g></g><g fill="#8bad70" fill-opacity="1"><g transform="translate(58.915161, 22.129476)"><g><path d="M 0.59375 -0.96875 C 0.863281 -0.96875 1.113281 -0.988281 1.34375 -1.03125 C 1.570312 -1.070312 1.769531 -1.148438 1.9375 -1.265625 C 2.101562 -1.378906 2.238281 -1.546875 2.34375 -1.765625 C 2.445312 -1.984375 2.5 -2.273438 2.5 -2.640625 L 2.5 -15.0625 C 2.5 -15.394531 2.445312 -15.664062 2.34375 -15.875 C 2.238281 -16.082031 2.097656 -16.242188 1.921875 -16.359375 C 1.753906 -16.472656 1.554688 -16.546875 1.328125 -16.578125 C 1.097656 -16.609375 0.851562 -16.625 0.59375 -16.625 L 0.3125 -16.625 L 0.3125 -17.609375 L 4.6875 -17.609375 L 4.6875 -2.640625 C 4.6875 -2.273438 4.734375 -1.984375 4.828125 -1.765625 C 4.929688 -1.546875 5.066406 -1.378906 5.234375 -1.265625 C 5.410156 -1.148438 5.613281 -1.070312 5.84375 -1.03125 C 6.070312 -0.988281 6.316406 -0.96875 6.578125 -0.96875 L 6.875 -0.96875 L 6.875 0 L 0.3125 0 L 0.3125 -0.96875 Z M 0.59375 -0.96875 "/></g></g></g><g fill="#8bad70" fill-opacity="1"><g transform="translate(66.100477, 22.129476)"><g><path d="M 0.59375 -0.96875 C 0.863281 -0.96875 1.113281 -0.988281 1.34375 -1.03125 C 1.570312 -1.070312 1.769531 -1.148438 1.9375 -1.265625 C 2.101562 -1.378906 2.238281 -1.546875 2.34375 -1.765625 C 2.445312 -1.984375 2.5 -2.273438 2.5 -2.640625 L 2.5 -15.0625 C 2.5 -15.394531 2.445312 -15.664062 2.34375 -15.875 C 2.238281 -16.082031 2.097656 -16.242188 1.921875 -16.359375 C 1.753906 -16.472656 1.554688 -16.546875 1.328125 -16.578125 C 1.097656 -16.609375 0.851562 -16.625 0.59375 -16.625 L 0.3125 -16.625 L 0.3125 -17.609375 L 4.6875 -17.609375 L 4.6875 -2.640625 C 4.6875 -2.273438 4.734375 -1.984375 4.828125 -1.765625 C 4.929688 -1.546875 5.066406 -1.378906 5.234375 -1.265625 C 5.410156 -1.148438 5.613281 -1.070312 5.84375 -1.03125 C 6.070312 -0.988281 6.316406 -0.96875 6.578125 -0.96875 L 6.875 -0.96875 L 6.875 0 L 0.3125 0 L 0.3125 -0.96875 Z M 0.59375 -0.96875 "/></g></g></g><g clip-path="url(#id2)"><path fill="#003479" d="M 87.253906 21.585938 L 89.382812 18.554688 L 87.253906 15.523438 L 87.253906 0.492188 L 81.332031 0.492188 L 81.332031 2.875 L 84.757812 2.875 L 84.757812 16.246094 L 86.378906 18.554688 L 84.757812 20.863281 L 84.757812 34.234375 L 81.332031 34.234375 L 81.332031 36.617188 L 87.253906 36.617188 L 87.253906 21.585938 " fill-opacity="1" fill-rule="nonzero"/></g></svg>