<svg xmlns="http://www.w3.org/2000/svg" xmlns:xlink="http://www.w3.org/1999/xlink" width="250" zoomAndPan="magnify" viewBox="0 0 187.5 149.999998" height="200" preserveAspectRatio="xMidYMid meet" version="1.0"><defs><clipPath id="id1"><path d="M 18 10 L 159 10 L 159 149.800781 L 18 149.800781 Z M 18 10 " clip-rule="nonzero"/></clipPath><clipPath id="id2"><path d="M 84 0.199219 L 170 0.199219 L 170 86 L 84 86 Z M 84 0.199219 " clip-rule="nonzero"/></clipPath></defs><g clip-path="url(#id1)"><path fill="#000000" d="M 154.734375 113.363281 C 146.996094 110.847656 137.101562 107.617188 127.382812 105.28125 C 125.402344 104.742188 120.902344 104.742188 118.921875 107.976562 L 112.804688 117.3125 C 112.265625 118.03125 111.542969 118.390625 110.824219 118.570312 C 109.023438 118.75 107.046875 118.390625 105.605469 117.132812 C 101.648438 114.621094 86.351562 100.613281 77.351562 91.992188 C 68.351562 82.652344 54.675781 67.566406 51.796875 63.617188 C 50.714844 62.179688 50.175781 60.203125 50.355469 58.40625 C 50.535156 57.511719 50.898438 56.792969 51.617188 56.433594 L 60.976562 50.328125 C 63.132812 48.890625 64.214844 43.859375 63.675781 41.886719 C 61.875 34.34375 59.535156 25.902344 55.753906 14.765625 C 54.855469 12.433594 51.257812 9.558594 45.496094 11.535156 C 37.757812 14.765625 30.5625 19.4375 24.441406 25.542969 C 22.640625 27.339844 21.023438 29.132812 19.582031 31.109375 C 19.222656 31.46875 19.042969 32.007812 19.042969 32.367188 C 17.78125 54.816406 32.898438 84.988281 57.554688 109.410156 C 81.3125 134.195312 111.726562 150.179688 134.582031 150.179688 C 135.480469 150.179688 136.199219 150.179688 137.101562 150.179688 C 137.640625 150.179688 138 150 138.359375 149.640625 C 140.339844 148.023438 142.136719 146.40625 143.9375 144.789062 C 148.796875 139.941406 152.757812 134.375 155.996094 128.449219 C 156.714844 126.832031 157.4375 125.394531 158.15625 123.777344 C 158.875 121.265625 160.316406 115.160156 154.734375 113.363281 Z M 47.296875 15.484375 C 48.917969 14.945312 51.078125 15.304688 51.617188 16.382812 C 55.214844 27.339844 57.734375 35.601562 59.355469 42.964844 C 59.714844 44.21875 59.355469 46.015625 58.457031 46.734375 L 56.296875 48.171875 C 49.457031 39.011719 45.316406 28.238281 44.238281 16.921875 C 44.238281 16.921875 46.21875 16.023438 47.296875 15.484375 Z M 154.015625 121.984375 C 153.65625 123.058594 153.117188 123.957031 152.757812 124.855469 C 131.699219 121.445312 123.601562 115.515625 121.261719 113.363281 L 122.882812 110.847656 C 123.78125 109.589844 125.402344 109.589844 126.660156 109.949219 C 135.839844 112.105469 145.738281 115.339844 153.296875 117.671875 C 154.554688 118.03125 154.554688 120.367188 154.015625 121.984375 Z M 154.015625 121.984375 " fill-opacity="1" fill-rule="nonzero"/></g><g clip-path="url(#id2)"><path fill="#000000" d="M 86.53125 0.21875 C 85.269531 0.21875 84.371094 1.296875 84.371094 2.375 C 84.371094 3.453125 85.449219 4.53125 86.53125 4.53125 C 130.261719 4.53125 165.535156 39.910156 165.535156 83.371094 C 165.535156 84.628906 166.613281 85.527344 167.695312 85.527344 C 168.773438 85.527344 169.851562 84.449219 169.851562 83.371094 C 170.03125 37.574219 132.601562 0.398438 86.53125 0.21875 Z M 86.53125 0.21875 " fill-opacity="1" fill-rule="nonzero"/></g><path fill="#000000" d="M 125.582031 44.757812 C 136.019531 54.996094 141.777344 69.003906 141.777344 83.730469 C 141.777344 84.988281 142.859375 85.886719 143.9375 85.886719 C 145.019531 85.886719 146.097656 84.808594 146.097656 83.730469 C 146.097656 50.863281 119.28125 24.105469 86.351562 24.105469 C 85.089844 24.105469 84.191406 25.183594 84.191406 26.261719 C 84.191406 27.519531 85.089844 28.417969 86.167969 28.597656 C 86.167969 28.597656 86.351562 28.597656 86.351562 28.597656 C 101.105469 28.597656 115.144531 34.34375 125.582031 44.757812 Z M 125.582031 44.757812 " fill-opacity="1" fill-rule="nonzero"/><path fill="#000000" d="M 86.53125 53.738281 C 103.085938 53.738281 116.582031 67.207031 116.582031 83.730469 C 116.582031 84.988281 117.664062 85.886719 118.742188 85.886719 C 119.824219 85.886719 120.902344 84.808594 120.902344 83.730469 C 120.902344 64.695312 105.425781 49.25 86.351562 49.25 C 85.089844 49.25 84.191406 50.328125 84.191406 51.402344 C 84.191406 52.480469 85.269531 53.738281 86.53125 53.738281 Z M 86.53125 53.738281 " fill-opacity="1" fill-rule="nonzero"/></svg>